<svg width="364" height="429" viewBox="0 0 364 429" fill="none" xmlns="http://www.w3.org/2000/svg">
<path fill-rule="evenodd" clip-rule="evenodd" d="M8 254.517V272.959L43.6923 280.032C43.6923 280.032 47.919 304.552 63.417 330.016L42.2834 360.666L71.8705 390.845L103.336 369.154C103.336 369.154 129.636 386.129 151.239 388.487L159.223 428.097H199.611L208.065 389.43C208.065 389.43 237.182 382.357 253.15 370.097L288.372 393.674L317.96 363.967L294.478 330.016C294.478 330.016 308.097 311.154 314.202 285.691L356 277.203V254.517C355.146 254.544 354.233 254.544 353.256 254.515C347.136 254.329 342.057 254.182 337.81 254.097C334.21 254.097 330.205 254.097 325.914 254.097C316.466 254.449 314.828 256.022 310.676 260.012L310.675 260.012C309.017 261.605 306.959 263.583 303.842 266.022H252.369C242.526 324.796 183.174 328.13 183.174 328.13C183.174 328.13 119.349 331.081 106.842 266.022H60.1578C57.0411 263.583 54.9823 261.605 53.3244 260.012C49.1721 256.023 47.5344 254.449 38.0871 254.097H26.1883C21.9412 254.182 16.8633 254.329 10.744 254.515C9.76686 254.544 8.85364 254.544 8 254.517Z" fill="#DE4300"/>
<path d="M0.170633 237.828C-0.488227 222.456 0.0388765 185.519 15.3231 176.559C15.3231 133.737 48.2631 69.1742 93.0617 42.8221C96.3557 59.2922 120.731 157.454 126.661 165.359C123.458 130.127 119.464 102.984 116.361 81.899C109.254 33.5933 106.824 17.078 129.296 7.90563C147.891 0.315545 179.365 0 182 0C184.635 0 216.109 0.315545 234.704 7.90563C257.176 17.078 254.746 33.5933 247.639 81.8989C244.536 102.984 240.542 130.127 237.339 165.359C243.269 157.454 267.644 59.2922 270.938 42.8221C315.737 69.1742 348.677 133.737 348.677 176.559C363.961 185.519 364.488 222.456 363.829 237.828L363.809 237.972C363.155 242.557 362.362 248.124 348.677 247.71C313.901 246.656 313.682 246.866 307.235 253.06C305.621 254.61 303.618 256.535 300.584 258.909H63.4156C60.3822 256.535 58.3785 254.61 56.765 253.06C50.3185 246.866 50.0994 246.656 15.3231 247.71C1.63807 248.124 0.844604 242.557 0.191162 237.972L0.170633 237.828Z" fill="#DE4300"/>
</svg>
